solid GY-VL53L0XV2
facet normal 7.531802274064062e-32 1.0 2.6542273962652664e-15
  outer loop
    vertex 104.00364474131017 16.924455681651107 13.538965000000124
    vertex 105.20364474131017 16.92445568165112 6.138965000000118
    vertex 104.00364474131017 16.92445568165113 6.138965000000118
  endloop
endfacet
facet normal 7.531802274064062e-32 1.0 2.6542273962652664e-15
  outer loop
    vertex 105.20364474131017 16.92445568165112 6.138965000000118
    vertex 104.00364474131017 16.924455681651107 13.538965000000124
    vertex 105.20364474131017 16.924455681651107 12.33896500000013
  endloop
endfacet
facet normal 7.531802274064062e-32 1.0 2.6542273962652664e-15
  outer loop
    vertex 105.20364474131017 16.924455681651107 12.33896500000013
    vertex 104.00364474131017 16.924455681651107 13.538965000000124
    vertex 112.8036447413102 16.924455681651107 12.33896500000013
  endloop
endfacet
facet normal 7.531802274064062e-32 1.0 2.6542273962652664e-15
  outer loop
    vertex 112.8036447413102 16.924455681651107 12.33896500000013
    vertex 114.0036447413102 16.92445568165113 6.138965000000118
    vertex 112.8036447413102 16.92445568165112 6.138965000000118
  endloop
endfacet
facet normal 7.531802274064062e-32 1.0 2.6542273962652664e-15
  outer loop
    vertex 114.0036447413102 16.92445568165113 6.138965000000118
    vertex 112.8036447413102 16.924455681651107 12.33896500000013
    vertex 114.0036447413102 16.924455681651107 13.538965000000124
  endloop
endfacet
facet normal 7.531802274064062e-32 1.0 2.6542273962652664e-15
  outer loop
    vertex 114.0036447413102 16.924455681651107 13.538965000000124
    vertex 112.8036447413102 16.924455681651107 12.33896500000013
    vertex 104.00364474131017 16.924455681651107 13.538965000000124
  endloop
endfacet
facet normal 0.0 -2.3399509776222943e-15 1.0
  outer loop
    vertex 114.0036447413102 -30.075544318348893 13.538965000000015
    vertex 104.00364474131017 16.924455681651107 13.538965000000124
    vertex 104.00364474131017 -30.075544318348893 13.538965000000015
  endloop
endfacet
facet normal 0.0 -2.3399509776222943e-15 1.0
  outer loop
    vertex 104.00364474131017 16.924455681651107 13.538965000000124
    vertex 114.0036447413102 -30.075544318348893 13.538965000000015
    vertex 114.0036447413102 16.924455681651107 13.538965000000124
  endloop
endfacet
facet normal 1.0 -1.9886037989171476e-16 -6.062482227041915e-31
  outer loop
    vertex 114.0036447413102 -30.075544318348868 6.138965000000008
    vertex 114.0036447413102 16.924455681651107 13.538965000000124
    vertex 114.0036447413102 -30.075544318348893 13.538965000000015
  endloop
endfacet
facet normal 1.0 -1.9886037989171476e-16 -6.062482227041915e-31
  outer loop
    vertex 114.0036447413102 16.924455681651107 13.538965000000124
    vertex 114.0036447413102 -30.075544318348868 6.138965000000008
    vertex 114.0036447413102 16.92445568165113 6.138965000000118
  endloop
endfacet
facet normal 0.0 2.3499720687899152e-15 -1.0
  outer loop
    vertex 112.8036447413102 16.924455681651107 12.33896500000013
    vertex 105.20364474131017 -25.075544318348882 12.33896500000003
    vertex 105.20364474131017 16.924455681651107 12.33896500000013
  endloop
endfacet
facet normal 0.0 2.3499720687899152e-15 -1.0
  outer loop
    vertex 105.20364474131017 -25.075544318348882 12.33896500000003
    vertex 112.8036447413102 16.924455681651107 12.33896500000013
    vertex 112.8036447413102 -25.075544318348882 12.33896500000003
  endloop
endfacet
facet normal 1.6255968317146811e-31 2.3399721876461274e-15 -1.0
  outer loop
    vertex 114.0036447413102 16.92445568165113 6.138965000000118
    vertex 112.8036447413102 15.72445568165112 6.138965000000115
    vertex 112.8036447413102 16.92445568165112 6.138965000000118
  endloop
endfacet
facet normal 1.6255968317146811e-31 2.3399721876461274e-15 -1.0
  outer loop
    vertex 105.20364474131017 16.92445568165112 6.138965000000118
    vertex 104.00364474131017 -30.075544318348868 6.138965000000008
    vertex 104.00364474131017 16.92445568165113 6.138965000000118
  endloop
endfacet
facet normal 1.6255968317146811e-31 2.3399721876461274e-15 -1.0
  outer loop
    vertex 104.00364474131017 -30.075544318348868 6.138965000000008
    vertex 105.20364474131017 16.92445568165112 6.138965000000118
    vertex 105.20364474131019 15.72445568165112 6.138965000000115
  endloop
endfacet
facet normal 1.6255968317146811e-31 2.3399721876461274e-15 -1.0
  outer loop
    vertex 104.00364474131017 -30.075544318348868 6.138965000000008
    vertex 105.20364474131019 15.72445568165112 6.138965000000115
    vertex 114.0036447413102 -30.075544318348868 6.138965000000008
  endloop
endfacet
facet normal 1.6255968317146811e-31 2.3399721876461274e-15 -1.0
  outer loop
    vertex 114.0036447413102 -30.075544318348868 6.138965000000008
    vertex 105.20364474131019 15.72445568165112 6.138965000000115
    vertex 112.8036447413102 15.72445568165112 6.138965000000115
  endloop
endfacet
facet normal 1.6255968317146811e-31 2.3399721876461274e-15 -1.0
  outer loop
    vertex 114.0036447413102 -30.075544318348868 6.138965000000008
    vertex 112.8036447413102 15.72445568165112 6.138965000000115
    vertex 114.0036447413102 16.92445568165113 6.138965000000118
  endloop
endfacet
facet normal -1.0 1.9886037989171476e-16 6.062482227041915e-31
  outer loop
    vertex 104.00364474131017 16.924455681651107 13.538965000000124
    vertex 104.00364474131017 -30.075544318348868 6.138965000000008
    vertex 104.00364474131017 -30.075544318348893 13.538965000000015
  endloop
endfacet
facet normal -1.0 1.9886037989171476e-16 6.062482227041915e-31
  outer loop
    vertex 104.00364474131017 -30.075544318348868 6.138965000000008
    vertex 104.00364474131017 16.924455681651107 13.538965000000124
    vertex 104.00364474131017 16.92445568165113 6.138965000000118
  endloop
endfacet
facet normal 1.0 -1.954627488218521e-16 1.4992770795825097e-15
  outer loop
    vertex 105.20364474131019 15.724455681651117 7.338965000000103
    vertex 105.20364474131017 -25.075544318348882 12.33896500000003
    vertex 105.20364474131017 -25.075544318348882 7.338965000000009
  endloop
endfacet
facet normal 1.0 -1.954627488218521e-16 1.4992770795825097e-15
  outer loop
    vertex 105.20364474131017 -25.075544318348882 12.33896500000003
    vertex 105.20364474131019 15.724455681651117 7.338965000000103
    vertex 105.20364474131017 16.924455681651107 12.33896500000013
  endloop
endfacet
facet normal 1.0 -1.954627488218521e-16 1.4992770795825097e-15
  outer loop
    vertex 105.20364474131017 16.924455681651107 12.33896500000013
    vertex 105.20364474131019 15.724455681651117 7.338965000000103
    vertex 105.20364474131019 15.72445568165112 6.138965000000115
  endloop
endfacet
facet normal 1.0 -1.954627488218521e-16 1.4992770795825097e-15
  outer loop
    vertex 105.20364474131017 16.924455681651107 12.33896500000013
    vertex 105.20364474131019 15.72445568165112 6.138965000000115
    vertex 105.20364474131017 16.92445568165112 6.138965000000118
  endloop
endfacet
facet normal -0.0 1.0 2.3499720687899136e-15
  outer loop
    vertex 105.20364474131019 15.724455681651117 7.338965000000103
    vertex 112.8036447413102 15.72445568165112 6.138965000000115
    vertex 105.20364474131019 15.72445568165112 6.138965000000115
  endloop
endfacet
facet normal -0.0 1.0 2.3499720687899136e-15
  outer loop
    vertex 112.8036447413102 15.72445568165112 6.138965000000115
    vertex 105.20364474131019 15.724455681651117 7.338965000000103
    vertex 112.8036447413102 15.724455681651117 7.338965000000103
  endloop
endfacet
facet normal 0.0 -1.0 -3.048612413565292e-15
  outer loop
    vertex 114.0036447413102 -30.075544318348868 6.138965000000008
    vertex 112.8036447413102 -30.075544318348882 7.338964999999996
    vertex 104.00364474131017 -30.075544318348868 6.138965000000008
  endloop
endfacet
facet normal 0.0 -1.0 -3.048612413565292e-15
  outer loop
    vertex 112.8036447413102 -30.075544318348882 7.338964999999996
    vertex 114.0036447413102 -30.075544318348868 6.138965000000008
    vertex 114.0036447413102 -30.075544318348893 13.538965000000015
  endloop
endfacet
facet normal 0.0 -1.0 -3.048612413565292e-15
  outer loop
    vertex 112.8036447413102 -30.075544318348882 7.338964999999996
    vertex 114.0036447413102 -30.075544318348893 13.538965000000015
    vertex 112.8036447413102 -30.075544318348893 12.33896500000002
  endloop
endfacet
facet normal 0.0 -1.0 -3.048612413565292e-15
  outer loop
    vertex 112.8036447413102 -30.075544318348893 12.33896500000002
    vertex 114.0036447413102 -30.075544318348893 13.538965000000015
    vertex 105.20364474131017 -30.075544318348893 12.33896500000002
  endloop
endfacet
facet normal 0.0 -1.0 -3.048612413565292e-15
  outer loop
    vertex 104.00364474131017 -30.075544318348868 6.138965000000008
    vertex 105.20364474131017 -30.075544318348882 7.338964999999996
    vertex 104.00364474131017 -30.075544318348893 13.538965000000015
  endloop
endfacet
facet normal 0.0 -1.0 -3.048612413565292e-15
  outer loop
    vertex 105.20364474131017 -30.075544318348882 7.338964999999996
    vertex 104.00364474131017 -30.075544318348868 6.138965000000008
    vertex 112.8036447413102 -30.075544318348882 7.338964999999996
  endloop
endfacet
facet normal 0.0 -1.0 -3.048612413565292e-15
  outer loop
    vertex 105.20364474131017 -30.075544318348882 7.338964999999996
    vertex 112.8036447413102 -30.075544318348882 7.338964999999996
    vertex 111.6036447413102 -30.075544318348882 7.338964999999996
  endloop
endfacet
facet normal 0.0 -1.0 -3.048612413565292e-15
  outer loop
    vertex 105.20364474131017 -30.075544318348882 7.338964999999996
    vertex 111.6036447413102 -30.075544318348882 7.338964999999996
    vertex 106.40364474131016 -30.075544318348882 7.338964999999996
  endloop
endfacet
facet normal 0.0 -1.0 -3.048612413565292e-15
  outer loop
    vertex 104.00364474131017 -30.075544318348893 13.538965000000015
    vertex 105.20364474131017 -30.075544318348882 7.338964999999996
    vertex 105.20364474131017 -30.075544318348893 12.33896500000002
  endloop
endfacet
facet normal 0.0 -1.0 -3.048612413565292e-15
  outer loop
    vertex 104.00364474131017 -30.075544318348893 13.538965000000015
    vertex 105.20364474131017 -30.075544318348893 12.33896500000002
    vertex 114.0036447413102 -30.075544318348893 13.538965000000015
  endloop
endfacet
facet normal -1.0 0.0 0.0
  outer loop
    vertex 112.8036447413102 16.924455681651107 12.33896500000013
    vertex 112.8036447413102 -25.075544318348882 7.338965000000009
    vertex 112.8036447413102 -25.075544318348882 12.33896500000003
  endloop
endfacet
facet normal -1.0 0.0 0.0
  outer loop
    vertex 112.8036447413102 -25.075544318348882 7.338965000000009
    vertex 112.8036447413102 16.924455681651107 12.33896500000013
    vertex 112.8036447413102 15.724455681651117 7.338965000000103
  endloop
endfacet
facet normal -1.0 0.0 0.0
  outer loop
    vertex 112.8036447413102 15.724455681651117 7.338965000000103
    vertex 112.8036447413102 16.924455681651107 12.33896500000013
    vertex 112.8036447413102 15.72445568165112 6.138965000000115
  endloop
endfacet
facet normal -1.0 0.0 0.0
  outer loop
    vertex 112.8036447413102 15.72445568165112 6.138965000000115
    vertex 112.8036447413102 16.924455681651107 12.33896500000013
    vertex 112.8036447413102 16.92445568165112 6.138965000000118
  endloop
endfacet
facet normal 1.8448052136928839e-32 1.0 1.620670392268893e-15
  outer loop
    vertex 105.20364474131017 -33.57554431834889 12.33896500000001
    vertex 106.40364474131016 -33.57554431834888 7.3389649999999875
    vertex 105.20364474131017 -33.57554431834888 7.3389649999999875
  endloop
endfacet
facet normal 1.8448052136928839e-32 1.0 1.620670392268893e-15
  outer loop
    vertex 106.40364474131016 -33.57554431834888 7.3389649999999875
    vertex 105.20364474131017 -33.57554431834889 12.33896500000001
    vertex 106.40364474131016 -33.57554431834888 8.538965000000001
  endloop
endfacet
facet normal 1.8448052136928839e-32 1.0 1.620670392268893e-15
  outer loop
    vertex 106.40364474131016 -33.57554431834888 8.538965000000001
    vertex 105.20364474131017 -33.57554431834889 12.33896500000001
    vertex 106.40364474131016 -33.57554431834888 11.138965000000022
  endloop
endfacet
facet normal 1.8448052136928839e-32 1.0 1.620670392268893e-15
  outer loop
    vertex 106.40364474131016 -33.57554431834888 11.138965000000022
    vertex 105.20364474131017 -33.57554431834889 12.33896500000001
    vertex 111.6036447413102 -33.57554431834888 11.138965000000022
  endloop
endfacet
facet normal 1.8448052136928839e-32 1.0 1.620670392268893e-15
  outer loop
    vertex 111.6036447413102 -33.57554431834888 8.538965000000001
    vertex 112.8036447413102 -33.57554431834888 7.3389649999999875
    vertex 111.6036447413102 -33.57554431834888 7.3389649999999875
  endloop
endfacet
facet normal 1.8448052136928839e-32 1.0 1.620670392268893e-15
  outer loop
    vertex 112.8036447413102 -33.57554431834888 7.3389649999999875
    vertex 111.6036447413102 -33.57554431834888 8.538965000000001
    vertex 112.8036447413102 -33.57554431834889 12.33896500000001
  endloop
endfacet
facet normal 1.8448052136928839e-32 1.0 1.620670392268893e-15
  outer loop
    vertex 112.8036447413102 -33.57554431834889 12.33896500000001
    vertex 111.6036447413102 -33.57554431834888 8.538965000000001
    vertex 111.6036447413102 -33.57554431834888 11.138965000000022
  endloop
endfacet
facet normal 1.8448052136928839e-32 1.0 1.620670392268893e-15
  outer loop
    vertex 112.8036447413102 -33.57554431834889 12.33896500000001
    vertex 111.6036447413102 -33.57554431834888 11.138965000000022
    vertex 105.20364474131017 -33.57554431834889 12.33896500000001
  endloop
endfacet
facet normal 0.0 -2.2559731860383075e-15 1.0
  outer loop
    vertex 112.8036447413102 -33.57554431834889 12.33896500000001
    vertex 105.20364474131017 -30.075544318348893 12.33896500000002
    vertex 105.20364474131017 -33.57554431834889 12.33896500000001
  endloop
endfacet
facet normal 0.0 -2.2559731860383075e-15 1.0
  outer loop
    vertex 105.20364474131017 -30.075544318348893 12.33896500000002
    vertex 112.8036447413102 -33.57554431834889 12.33896500000001
    vertex 112.8036447413102 -30.075544318348893 12.33896500000002
  endloop
endfacet
facet normal -1.0 0.0 0.0
  outer loop
    vertex 105.20364474131017 -30.075544318348893 12.33896500000002
    vertex 105.20364474131017 -33.57554431834888 7.3389649999999875
    vertex 105.20364474131017 -33.57554431834889 12.33896500000001
  endloop
endfacet
facet normal -1.0 0.0 0.0
  outer loop
    vertex 105.20364474131017 -33.57554431834888 7.3389649999999875
    vertex 105.20364474131017 -30.075544318348893 12.33896500000002
    vertex 105.20364474131017 -31.275544318348878 7.338964999999994
  endloop
endfacet
facet normal -1.0 0.0 0.0
  outer loop
    vertex 105.20364474131017 -31.275544318348878 7.338964999999994
    vertex 105.20364474131017 -30.075544318348893 12.33896500000002
    vertex 105.20364474131017 -30.075544318348882 7.338964999999996
  endloop
endfacet
facet normal 5.842349724378046e-32 2.3499720687899188e-15 -1.0
  outer loop
    vertex 112.8036447413102 -30.075544318348882 7.338964999999996
    vertex 111.6036447413102 -31.275544318348878 7.338964999999994
    vertex 111.6036447413102 -30.075544318348882 7.338964999999996
  endloop
endfacet
facet normal 5.842349724378046e-32 2.3499720687899188e-15 -1.0
  outer loop
    vertex 111.6036447413102 -31.275544318348878 7.338964999999994
    vertex 112.8036447413102 -30.075544318348882 7.338964999999996
    vertex 112.80364474131018 -31.275544318348878 7.338964999999994
  endloop
endfacet
facet normal 1.0 6.643208418263075e-16 -1.4796236931585727e-15
  outer loop
    vertex 112.8036447413102 -33.57554431834888 7.3389649999999875
    vertex 112.8036447413102 -30.075544318348893 12.33896500000002
    vertex 112.8036447413102 -33.57554431834889 12.33896500000001
  endloop
endfacet
facet normal 1.0 6.643208418263075e-16 -1.4796236931585727e-15
  outer loop
    vertex 112.8036447413102 -30.075544318348893 12.33896500000002
    vertex 112.8036447413102 -33.57554431834888 7.3389649999999875
    vertex 112.80364474131018 -31.275544318348878 7.338964999999994
  endloop
endfacet
facet normal 1.0 6.643208418263075e-16 -1.4796236931585727e-15
  outer loop
    vertex 112.8036447413102 -30.075544318348893 12.33896500000002
    vertex 112.80364474131018 -31.275544318348878 7.338964999999994
    vertex 112.8036447413102 -30.075544318348882 7.338964999999996
  endloop
endfacet
facet normal -0.0 -5.0759396685862124e-15 1.0
  outer loop
    vertex 106.40364474131016 -30.075544318348882 7.338964999999996
    vertex 105.20364474131017 -27.57554431834888 7.338965000000009
    vertex 105.20364474131017 -30.075544318348882 7.338964999999996
  endloop
endfacet
facet normal -0.0 -5.0759396685862124e-15 1.0
  outer loop
    vertex 105.20364474131017 -27.57554431834888 7.338965000000009
    vertex 106.40364474131016 -30.075544318348882 7.338964999999996
    vertex 112.8036447413102 -27.57554431834888 7.338965000000009
  endloop
endfacet
facet normal -0.0 -5.0759396685862124e-15 1.0
  outer loop
    vertex 112.8036447413102 -27.57554431834888 7.338965000000009
    vertex 106.40364474131016 -30.075544318348882 7.338964999999996
    vertex 111.6036447413102 -30.075544318348882 7.338964999999996
  endloop
endfacet
facet normal -0.0 -5.0759396685862124e-15 1.0
  outer loop
    vertex 112.8036447413102 -27.57554431834888 7.338965000000009
    vertex 111.6036447413102 -30.075544318348882 7.338964999999996
    vertex 112.8036447413102 -30.075544318348882 7.338964999999996
  endloop
endfacet
facet normal 0.0 -1.0 0.0
  outer loop
    vertex 112.8036447413102 -25.075544318348882 7.338965000000009
    vertex 111.6036447413102 -25.075544318348882 8.53896500000001
    vertex 105.20364474131017 -25.075544318348882 7.338965000000009
  endloop
endfacet
facet normal 0.0 -1.0 0.0
  outer loop
    vertex 111.6036447413102 -25.075544318348882 8.53896500000001
    vertex 112.8036447413102 -25.075544318348882 7.338965000000009
    vertex 112.8036447413102 -25.075544318348882 12.33896500000003
  endloop
endfacet
facet normal 0.0 -1.0 0.0
  outer loop
    vertex 111.6036447413102 -25.075544318348882 8.53896500000001
    vertex 112.8036447413102 -25.075544318348882 12.33896500000003
    vertex 111.6036447413102 -25.075544318348882 11.13896500000003
  endloop
endfacet
facet normal 0.0 -1.0 0.0
  outer loop
    vertex 111.6036447413102 -25.075544318348882 11.13896500000003
    vertex 112.8036447413102 -25.075544318348882 12.33896500000003
    vertex 106.40364474131016 -25.075544318348882 11.13896500000003
  endloop
endfacet
facet normal 0.0 -1.0 0.0
  outer loop
    vertex 105.20364474131017 -25.075544318348882 7.338965000000009
    vertex 106.40364474131016 -25.075544318348882 8.53896500000001
    vertex 105.20364474131017 -25.075544318348882 12.33896500000003
  endloop
endfacet
facet normal 0.0 -1.0 0.0
  outer loop
    vertex 106.40364474131016 -25.075544318348882 8.53896500000001
    vertex 105.20364474131017 -25.075544318348882 7.338965000000009
    vertex 111.6036447413102 -25.075544318348882 8.53896500000001
  endloop
endfacet
facet normal 0.0 -1.0 0.0
  outer loop
    vertex 105.20364474131017 -25.075544318348882 12.33896500000003
    vertex 106.40364474131016 -25.075544318348882 8.53896500000001
    vertex 106.40364474131016 -25.075544318348882 11.13896500000003
  endloop
endfacet
facet normal 0.0 -1.0 0.0
  outer loop
    vertex 105.20364474131017 -25.075544318348882 12.33896500000003
    vertex 106.40364474131016 -25.075544318348882 11.13896500000003
    vertex 112.8036447413102 -25.075544318348882 12.33896500000003
  endloop
endfacet
facet normal 0.0 4.511946372076614e-15 -1.0
  outer loop
    vertex 112.8036447413102 -27.57554431834888 12.33896500000003
    vertex 105.20364474131017 -30.075544318348893 12.33896500000002
    vertex 105.20364474131017 -27.57554431834888 12.33896500000003
  endloop
endfacet
facet normal 0.0 4.511946372076614e-15 -1.0
  outer loop
    vertex 105.20364474131017 -30.075544318348893 12.33896500000002
    vertex 112.8036447413102 -27.57554431834888 12.33896500000003
    vertex 112.8036447413102 -30.075544318348893 12.33896500000002
  endloop
endfacet
facet normal -1.0 0.0 0.0
  outer loop
    vertex 112.8036447413102 -27.57554431834888 12.33896500000003
    vertex 112.8036447413102 -30.075544318348882 7.338964999999996
    vertex 112.8036447413102 -30.075544318348893 12.33896500000002
  endloop
endfacet
facet normal -1.0 0.0 0.0
  outer loop
    vertex 112.8036447413102 -30.075544318348882 7.338964999999996
    vertex 112.8036447413102 -27.57554431834888 12.33896500000003
    vertex 112.8036447413102 -27.57554431834888 7.338965000000009
  endloop
endfacet
facet normal 1.0 -0.0 -0.0
  outer loop
    vertex 105.20364474131017 -30.075544318348882 7.338964999999996
    vertex 105.20364474131017 -27.57554431834888 12.33896500000003
    vertex 105.20364474131017 -30.075544318348893 12.33896500000002
  endloop
endfacet
facet normal 1.0 -0.0 -0.0
  outer loop
    vertex 105.20364474131017 -27.57554431834888 12.33896500000003
    vertex 105.20364474131017 -30.075544318348882 7.338964999999996
    vertex 105.20364474131017 -27.57554431834888 7.338965000000009
  endloop
endfacet
facet normal -0.0 -2.4521447674329527e-15 1.0
  outer loop
    vertex 106.40364474131016 -33.57554431834888 7.3389649999999875
    vertex 105.20364474131017 -31.275544318348878 7.338964999999994
    vertex 105.20364474131017 -33.57554431834888 7.3389649999999875
  endloop
endfacet
facet normal -0.0 -2.4521447674329527e-15 1.0
  outer loop
    vertex 105.20364474131017 -31.275544318348878 7.338964999999994
    vertex 106.40364474131016 -33.57554431834888 7.3389649999999875
    vertex 106.40364474131016 -31.275544318348878 7.338964999999994
  endloop
endfacet
facet normal 1.0692086184546778e-31 -2.4521447674329527e-15 1.0
  outer loop
    vertex 112.8036447413102 -33.57554431834888 7.3389649999999875
    vertex 111.6036447413102 -31.275544318348878 7.338964999999994
    vertex 111.6036447413102 -33.57554431834888 7.3389649999999875
  endloop
endfacet
facet normal 1.0692086184546778e-31 -2.4521447674329527e-15 1.0
  outer loop
    vertex 111.6036447413102 -31.275544318348878 7.338964999999994
    vertex 112.8036447413102 -33.57554431834888 7.3389649999999875
    vertex 112.80364474131018 -31.275544318348878 7.338964999999994
  endloop
endfacet
facet normal 1.0 -0.0 -0.0
  outer loop
    vertex 105.20364474131017 -25.075544318348882 7.338965000000009
    vertex 105.20364474131017 -27.57554431834888 12.33896500000003
    vertex 105.20364474131017 -27.57554431834888 7.338965000000009
  endloop
endfacet
facet normal 1.0 -0.0 -0.0
  outer loop
    vertex 105.20364474131017 -27.57554431834888 12.33896500000003
    vertex 105.20364474131017 -25.075544318348882 7.338965000000009
    vertex 105.20364474131017 -25.075544318348882 12.33896500000003
  endloop
endfacet
facet normal 1.0 -0.0 -0.0
  outer loop
    vertex 111.6036447413102 -31.275544318348885 8.538964999999992
    vertex 111.6036447413102 -33.57554431834888 11.138965000000022
    vertex 111.6036447413102 -33.57554431834888 8.538965000000001
  endloop
endfacet
facet normal 1.0 -0.0 -0.0
  outer loop
    vertex 111.6036447413102 -33.57554431834888 11.138965000000022
    vertex 111.6036447413102 -31.275544318348885 8.538964999999992
    vertex 111.6036447413102 -25.075544318348882 11.13896500000003
  endloop
endfacet
facet normal 1.0 -0.0 -0.0
  outer loop
    vertex 111.6036447413102 -25.075544318348882 11.13896500000003
    vertex 111.6036447413102 -31.275544318348885 8.538964999999992
    vertex 111.6036447413102 -25.075544318348882 8.53896500000001
  endloop
endfacet
facet normal 0.0 2.869236194987068e-15 -1.0
  outer loop
    vertex 111.6036447413102 -25.075544318348882 8.53896500000001
    vertex 106.40364474131016 -31.275544318348885 8.538964999999992
    vertex 106.40364474131016 -25.075544318348882 8.53896500000001
  endloop
endfacet
facet normal 0.0 2.869236194987068e-15 -1.0
  outer loop
    vertex 106.40364474131016 -31.275544318348885 8.538964999999992
    vertex 111.6036447413102 -25.075544318348882 8.53896500000001
    vertex 111.6036447413102 -31.275544318348885 8.538964999999992
  endloop
endfacet
facet normal -1.0 0.0 0.0
  outer loop
    vertex 112.8036447413102 -25.075544318348882 12.33896500000003
    vertex 112.8036447413102 -27.57554431834888 7.338965000000009
    vertex 112.8036447413102 -27.57554431834888 12.33896500000003
  endloop
endfacet
facet normal -1.0 0.0 0.0
  outer loop
    vertex 112.8036447413102 -27.57554431834888 7.338965000000009
    vertex 112.8036447413102 -25.075544318348882 12.33896500000003
    vertex 112.8036447413102 -25.075544318348882 7.338965000000009
  endloop
endfacet
facet normal -1.0 0.0 0.0
  outer loop
    vertex 106.40364474131016 -25.075544318348882 11.13896500000003
    vertex 106.40364474131016 -33.57554431834888 8.538965000000001
    vertex 106.40364474131016 -33.57554431834888 11.138965000000022
  endloop
endfacet
facet normal -1.0 0.0 0.0
  outer loop
    vertex 106.40364474131016 -33.57554431834888 8.538965000000001
    vertex 106.40364474131016 -25.075544318348882 11.13896500000003
    vertex 106.40364474131016 -31.275544318348885 8.538964999999992
  endloop
endfacet
facet normal -1.0 0.0 0.0
  outer loop
    vertex 106.40364474131016 -31.275544318348885 8.538964999999992
    vertex 106.40364474131016 -25.075544318348882 11.13896500000003
    vertex 106.40364474131016 -25.075544318348882 8.53896500000001
  endloop
endfacet
facet normal -0.0 -0.0 1.0
  outer loop
    vertex 112.8036447413102 -27.57554431834888 7.338965000000009
    vertex 105.20364474131017 -25.075544318348882 7.338965000000009
    vertex 105.20364474131017 -27.57554431834888 7.338965000000009
  endloop
endfacet
facet normal -0.0 -0.0 1.0
  outer loop
    vertex 105.20364474131017 -25.075544318348882 7.338965000000009
    vertex 112.8036447413102 -27.57554431834888 7.338965000000009
    vertex 112.8036447413102 -25.075544318348882 7.338965000000009
  endloop
endfacet
facet normal 0.0 0.0 -1.0
  outer loop
    vertex 112.8036447413102 -25.075544318348882 12.33896500000003
    vertex 105.20364474131017 -27.57554431834888 12.33896500000003
    vertex 105.20364474131017 -25.075544318348882 12.33896500000003
  endloop
endfacet
facet normal 0.0 0.0 -1.0
  outer loop
    vertex 105.20364474131017 -27.57554431834888 12.33896500000003
    vertex 112.8036447413102 -25.075544318348882 12.33896500000003
    vertex 112.8036447413102 -27.57554431834888 12.33896500000003
  endloop
endfacet
facet normal 3.360761132432852e-45 -1.0713409780858825e-15 1.0
  outer loop
    vertex 111.6036447413102 -33.57554431834888 11.138965000000022
    vertex 106.40364474131016 -25.075544318348882 11.13896500000003
    vertex 106.40364474131016 -33.57554431834888 11.138965000000022
  endloop
endfacet
facet normal 3.360761132432852e-45 -1.0713409780858825e-15 1.0
  outer loop
    vertex 106.40364474131016 -25.075544318348882 11.13896500000003
    vertex 111.6036447413102 -33.57554431834888 11.138965000000022
    vertex 111.6036447413102 -25.075544318348882 11.13896500000003
  endloop
endfacet
facet normal -1.4413038177925852e-31 -2.315413656013592e-15 1.0
  outer loop
    vertex 112.8036447413102 -25.075544318348882 7.338965000000009
    vertex 105.20364474131019 15.724455681651117 7.338965000000103
    vertex 105.20364474131017 -25.075544318348882 7.338965000000009
  endloop
endfacet
facet normal -1.4413038177925852e-31 -2.315413656013592e-15 1.0
  outer loop
    vertex 105.20364474131019 15.724455681651117 7.338965000000103
    vertex 112.8036447413102 -25.075544318348882 7.338965000000009
    vertex 112.8036447413102 15.724455681651117 7.338965000000103
  endloop
endfacet
facet normal 0.0 2.349972068789919e-15 -1.0
  outer loop
    vertex 111.6036447413102 -30.075544318348882 7.338964999999996
    vertex 106.40364474131016 -31.275544318348878 7.338964999999994
    vertex 106.40364474131016 -30.075544318348882 7.338964999999996
  endloop
endfacet
facet normal 0.0 2.349972068789919e-15 -1.0
  outer loop
    vertex 106.40364474131016 -31.275544318348878 7.338964999999994
    vertex 111.6036447413102 -30.075544318348882 7.338964999999996
    vertex 111.6036447413102 -31.275544318348878 7.338964999999994
  endloop
endfacet
facet normal 0.0 2.3499720687899188e-15 -1.0
  outer loop
    vertex 106.40364474131016 -30.075544318348882 7.338964999999996
    vertex 105.20364474131017 -31.275544318348878 7.338964999999994
    vertex 105.20364474131017 -30.075544318348882 7.338964999999996
  endloop
endfacet
facet normal 0.0 2.3499720687899188e-15 -1.0
  outer loop
    vertex 105.20364474131017 -31.275544318348878 7.338964999999994
    vertex 106.40364474131016 -30.075544318348882 7.338964999999996
    vertex 106.40364474131016 -31.275544318348878 7.338964999999994
  endloop
endfacet
facet normal -1.0 0.0 0.0
  outer loop
    vertex 106.40364474131016 -31.275544318348885 8.538964999999992
    vertex 106.40364474131016 -33.57554431834888 7.3389649999999875
    vertex 106.40364474131016 -33.57554431834888 8.538965000000001
  endloop
endfacet
facet normal -1.0 0.0 0.0
  outer loop
    vertex 106.40364474131016 -33.57554431834888 7.3389649999999875
    vertex 106.40364474131016 -31.275544318348885 8.538964999999992
    vertex 106.40364474131016 -31.275544318348878 7.338964999999994
  endloop
endfacet
facet normal -0.0 1.0 4.6999441375798336e-15
  outer loop
    vertex 106.40364474131016 -31.275544318348885 8.538964999999992
    vertex 111.6036447413102 -31.275544318348878 7.338964999999994
    vertex 106.40364474131016 -31.275544318348878 7.338964999999994
  endloop
endfacet
facet normal -0.0 1.0 4.6999441375798336e-15
  outer loop
    vertex 111.6036447413102 -31.275544318348878 7.338964999999994
    vertex 106.40364474131016 -31.275544318348885 8.538964999999992
    vertex 111.6036447413102 -31.275544318348885 8.538964999999992
  endloop
endfacet
facet normal 1.0 -0.0 -0.0
  outer loop
    vertex 111.6036447413102 -31.275544318348878 7.338964999999994
    vertex 111.6036447413102 -33.57554431834888 8.538965000000001
    vertex 111.6036447413102 -33.57554431834888 7.3389649999999875
  endloop
endfacet
facet normal 1.0 -0.0 -0.0
  outer loop
    vertex 111.6036447413102 -33.57554431834888 8.538965000000001
    vertex 111.6036447413102 -31.275544318348878 7.338964999999994
    vertex 111.6036447413102 -31.275544318348885 8.538964999999992
  endloop
endfacet
endsolid GY-VL53L0XV2
